<mxfile host="app.diagrams.net" modified="2022-03-14T07:11:12.788Z" agent="5.0 (Macintosh; Intel Mac OS X 10_15_7) AppleWebKit/537.36 (KHTML, like Gecko) Chrome/99.0.4844.51 Safari/537.36" etag="E2-bES_MX-pYsWvUw0tC" version="16.0.3" type="github">
  <diagram id="fiPleGOpcvjX0DgS8bl5" name="Page-1">
    <mxGraphModel dx="1426" dy="712" grid="1" gridSize="10" guides="1" tooltips="1" connect="1" arrows="1" fold="1" page="1" pageScale="1" pageWidth="827" pageHeight="1169" math="0" shadow="0">
      <root>
        <mxCell id="0" />
        <mxCell id="1" parent="0" />
        <mxCell id="HHzTLk70tVvbZ5FQG1CH-14" style="edgeStyle=orthogonalEdgeStyle;rounded=0;orthogonalLoop=1;jettySize=auto;html=1;" edge="1" parent="1" source="HHzTLk70tVvbZ5FQG1CH-1" target="HHzTLk70tVvbZ5FQG1CH-12">
          <mxGeometry relative="1" as="geometry" />
        </mxCell>
        <mxCell id="HHzTLk70tVvbZ5FQG1CH-1" value="gRPC service" style="verticalAlign=top;align=left;spacingTop=8;spacingLeft=2;spacingRight=12;shape=cube;size=10;direction=south;fontStyle=4;html=1;" vertex="1" parent="1">
          <mxGeometry x="179" y="300" width="411" height="267.5" as="geometry" />
        </mxCell>
        <mxCell id="HHzTLk70tVvbZ5FQG1CH-2" value="service-authorize" style="shape=module;align=left;spacingLeft=20;align=center;verticalAlign=top;" vertex="1" parent="1">
          <mxGeometry x="180" y="340" width="160" height="50" as="geometry" />
        </mxCell>
        <mxCell id="HHzTLk70tVvbZ5FQG1CH-5" value="service-resource&#xa;" style="shape=module;align=left;spacingLeft=20;align=center;verticalAlign=top;" vertex="1" parent="1">
          <mxGeometry x="180" y="420" width="160" height="50" as="geometry" />
        </mxCell>
        <mxCell id="HHzTLk70tVvbZ5FQG1CH-7" value="service-plugins" style="shape=module;align=left;spacingLeft=20;align=center;verticalAlign=top;direction=west;" vertex="1" parent="1">
          <mxGeometry x="400" y="490" width="150" height="50" as="geometry" />
        </mxCell>
        <mxCell id="HHzTLk70tVvbZ5FQG1CH-8" value="service-statistic" style="shape=module;align=left;spacingLeft=20;align=center;verticalAlign=top;" vertex="1" parent="1">
          <mxGeometry x="180" y="490" width="160" height="50" as="geometry" />
        </mxCell>
        <mxCell id="HHzTLk70tVvbZ5FQG1CH-9" value="service-scenario" style="shape=module;align=left;spacingLeft=20;align=center;verticalAlign=top;direction=west;" vertex="1" parent="1">
          <mxGeometry x="400" y="420" width="150" height="50" as="geometry" />
        </mxCell>
        <mxCell id="HHzTLk70tVvbZ5FQG1CH-10" value="service-user" style="shape=module;align=left;spacingLeft=20;align=center;verticalAlign=top;direction=west;" vertex="1" parent="1">
          <mxGeometry x="400" y="340" width="150" height="50" as="geometry" />
        </mxCell>
        <mxCell id="HHzTLk70tVvbZ5FQG1CH-15" style="edgeStyle=orthogonalEdgeStyle;rounded=0;orthogonalLoop=1;jettySize=auto;html=1;entryX=0;entryY=0;entryDx=40;entryDy=180;entryPerimeter=0;" edge="1" parent="1">
          <mxGeometry relative="1" as="geometry">
            <mxPoint x="910" y="435.79999999999995" as="sourcePoint" />
            <mxPoint x="1040" y="442" as="targetPoint" />
            <Array as="points">
              <mxPoint x="1040" y="436" />
            </Array>
          </mxGeometry>
        </mxCell>
        <mxCell id="HHzTLk70tVvbZ5FQG1CH-12" value="Webapi-gateway&lt;br&gt;" style="verticalAlign=top;align=left;spacingTop=8;spacingLeft=2;spacingRight=12;shape=cube;size=10;direction=south;fontStyle=4;html=1;" vertex="1" parent="1">
          <mxGeometry x="730" y="403.75" width="180" height="60" as="geometry" />
        </mxCell>
        <mxCell id="HHzTLk70tVvbZ5FQG1CH-13" value="Management-Frontend&lt;br&gt;" style="verticalAlign=top;align=left;spacingTop=8;spacingLeft=2;spacingRight=12;shape=cube;size=10;direction=south;fontStyle=4;html=1;" vertex="1" parent="1">
          <mxGeometry x="1040" y="400" width="180" height="60" as="geometry" />
        </mxCell>
      </root>
    </mxGraphModel>
  </diagram>
</mxfile>
